<svg width="307" height="57" viewBox="0 0 307 57" fill="none" xmlns="http://www.w3.org/2000/svg">
<g clip-path="url(#clip0)">
<path d="M30 25C26.7 25 24 27.7 24 31C24 34.3 26.7 37 30 37C33.3 37 36 34.3 36 31C36 27.7 33.3 25 30 25ZM48 31C48 21.07 39.93 13 30 13C20.07 13 12 21.07 12 31C12 37.66 15.63 43.45 21 46.57L24 41.35C20.43 39.25 18 35.44 18 31C18 24.37 23.37 19 30 19C36.63 19 42 24.37 42 31C42 35.44 39.57 39.25 36 41.35L39 46.57C44.37 43.45 48 37.66 48 31ZM30 0.999996C13.44 0.999996 0 14.44 0 31C0 42.1 6.03 51.76 14.97 56.95L17.97 51.76C10.83 47.59 6 39.88 6 31C6 17.74 16.74 7 30 7C43.26 7 54 17.74 54 31C54 39.88 49.17 47.59 42 51.76L45 56.95C53.97 51.76 60 42.1 60 31C60 14.44 46.56 0.999996 30 0.999996V0.999996Z" fill="#FF5722"/>
</g>
<path d="M98.4102 37.7227H86.3984L83.6396 47H79.0498L90.5 11.4531H94.333L105.808 47H101.218L98.4102 37.7227ZM87.5703 33.8652H97.2627L92.4043 17.7031L87.5703 33.8652ZM116.403 11.4531L125.681 40.457L134.958 11.4531H140.72V47H136.252V33.1572L136.667 19.29L127.365 47H123.947L114.694 19.3877L115.109 33.1572V47H110.642V11.4531H116.403ZM157.272 47.4883C153.985 47.4883 151.462 46.5117 149.704 44.5586C147.946 42.5892 147.051 39.7083 147.019 35.916V32.7178C147.019 28.779 147.873 25.6947 149.582 23.4648C151.307 21.2188 153.708 20.0957 156.784 20.0957C159.877 20.0957 162.188 21.0804 163.718 23.0498C165.248 25.0192 166.029 28.0872 166.062 32.2539V35.0859H151.315V35.6963C151.315 38.5283 151.844 40.5872 152.902 41.873C153.977 43.1589 155.515 43.8018 157.517 43.8018C158.786 43.8018 159.901 43.5658 160.861 43.0938C161.838 42.6055 162.749 41.8405 163.596 40.7988L165.842 43.5332C163.97 46.1699 161.114 47.4883 157.272 47.4883ZM156.784 23.8066C154.994 23.8066 153.667 24.4251 152.805 25.6621C151.942 26.8828 151.454 28.7871 151.34 31.375H161.74V30.7891C161.626 28.2826 161.171 26.4922 160.373 25.418C159.592 24.3438 158.396 23.8066 156.784 23.8066ZM179.27 33.7432H169.187V30.0566H179.27V33.7432ZM200.754 31.3018H188.742V47H184.274V11.4531H202.78V15.3105H188.742V27.4688H200.754V31.3018ZM206.247 32.5713C206.247 28.7301 207.175 25.6947 209.03 23.4648C210.902 21.2188 213.368 20.0957 216.428 20.0957C219.488 20.0957 221.945 21.1862 223.801 23.3672C225.673 25.5482 226.633 28.5186 226.682 32.2783V35.0615C226.682 38.8864 225.754 41.9137 223.898 44.1436C222.043 46.3734 219.569 47.4883 216.477 47.4883C213.417 47.4883 210.959 46.4059 209.104 44.2412C207.264 42.0765 206.312 39.1468 206.247 35.4521V32.5713ZM210.568 35.0615C210.568 37.7796 211.097 39.9199 212.155 41.4824C213.229 43.0286 214.67 43.8018 216.477 43.8018C220.285 43.8018 222.246 41.0511 222.36 35.5498V32.5713C222.36 29.8695 221.823 27.7373 220.749 26.1748C219.675 24.596 218.234 23.8066 216.428 23.8066C214.654 23.8066 213.229 24.596 212.155 26.1748C211.097 27.7373 210.568 29.8613 210.568 32.5469V35.0615ZM243.161 24.6367C242.559 24.5228 241.908 24.4658 241.208 24.4658C238.994 24.4658 237.448 25.6784 236.569 28.1035V47H232.248V20.584H236.447L236.521 23.2695C237.676 21.1536 239.312 20.0957 241.428 20.0957C242.111 20.0957 242.681 20.2096 243.137 20.4375L243.161 24.6367ZM260.959 44.6807C259.527 46.5524 257.435 47.4883 254.685 47.4883C252.292 47.4883 250.485 46.6663 249.265 45.0225C248.044 43.3623 247.425 40.9535 247.409 37.7959V20.584H251.706V37.4785C251.706 41.5964 252.943 43.6553 255.417 43.6553C258.037 43.6553 259.844 42.4834 260.837 40.1396V20.584H265.158V47H261.057L260.959 44.6807ZM275.729 20.584L275.827 23.0254C277.438 21.0723 279.562 20.0957 282.199 20.0957C285.145 20.0957 287.204 21.3734 288.376 23.9287C290.036 21.3734 292.347 20.0957 295.31 20.0957C300.176 20.0957 302.666 23.1312 302.78 29.2021V47H298.483V29.6172C298.483 27.6966 298.142 26.2725 297.458 25.3447C296.774 24.4007 295.619 23.9287 293.991 23.9287C292.689 23.9287 291.631 24.4333 290.817 25.4424C290.004 26.4515 289.532 27.7373 289.401 29.2998V47H285.056V29.4219C285.007 25.7598 283.518 23.9287 280.588 23.9287C278.407 23.9287 276.869 25.0192 275.974 27.2002V47H271.677V20.584H275.729Z" fill="#EEEEEE"/>
<rect x="67" width="4" height="56" fill="#EEEEEE"/>
<defs>
<clipPath id="clip0">
<rect y="0.999996" width="60" height="56" fill="white"/>
</clipPath>
</defs>
</svg>
